<?xml version="1.0" encoding="utf-8"?>
<!-- Generator: Adobe Illustrator 27.5.0, SVG Export Plug-In . SVG Version: 6.00 Build 0)  -->
<svg version="1.1" xmlns="http://www.w3.org/2000/svg" xmlns:xlink="http://www.w3.org/1999/xlink" x="0px" y="0px"
	 viewBox="0 0 750 500" style="enable-background:new 0 0 750 500;" xml:space="preserve">
<g id="BACKGROUND">
	<rect style="fill:#FFFFFF;" width="750" height="500"/>
</g>
<g id="OBJECTS">
	<path style="fill:#1F0C03;" d="M271.166,236.137c-1.288-0.778-2.289-2.222-3.72-6.778c-0.3-0.954-0.508-2.049-0.661-3.225
		c0.056-0.091,0.122-0.182,0.166-0.271c0.697-1.395-0.116-2.557-0.116-2.557s0.93-1.279,1.279-2.906
		c0.349-1.627-0.697-3.138-0.697-3.138s0.581-0.814,0-3.022c-0.379-1.439-0.999-1.985-1.389-2.195
		c-0.005-0.043-0.008-0.088-0.012-0.13c-0.521-4.749-1.641-6.189-5.066-7.33v-2.625h-8.169v5.701h0.635
		c-0.942,0.28-1.995,0.625-2.853,0.993c-2.074,0.889-3.852,3.852-4.74,3.259c-0.889-0.593-5.037-4.148-8.296-7.407
		c-3.259-3.259-8.592-8.296-9.481-11.259c-0.889-2.963-6.222-17.777-6.222-17.777s1.481-1.481,1.481-3.555
		c0-2.057-4.113-16.749-6.782-27.106c-0.053-1.654-0.174-2.922-0.333-3.773c-0.337-1.798-2.181-5.263-4.286-8.181
		c-2.111-3.303-4.963-5.893-9.338-8.641c0,0,0.514-2.911,1.007-4.144c0.493-1.233,3.863-1.562,5.26-2.219
		c1.397-0.658,3.123-2.959,3.945-5.013c0.822-2.055,0.575-10.109,0.575-13.396s-0.329-9.945-0.329-9.945s3.863,1.069,6.493,1.315
		c2.63,0.247,4.52,0.329,4.685-1.315c0.164-1.644-0.74-5.013-2.548-5.835c-1.808-0.822-9.369-3.287-9.369-3.287
		s-2.876-8.876-6.328-12.163c-3.452-3.288-8.465-5.26-12.574-5.26c-4.109,0-6.493,1.068-6.493,1.068s-1.397-0.986-2.712-0.329
		c-1.315,0.658-1.068,1.726-1.068,1.726c-7.315,2.465-11.999,8.465-13.396,13.314s-0.411,8.218,0,11.095c0,0-5.467-2.3-10.921-4.546
		c-3.641-1.499-7.698-1.17-9.697-1.919c-1.721-0.646-3.696-3.395-5.736-4.302c-4.302-1.912-4.78-3.107-11.233-3.107
		c-4.187,0-9.214,6.518-11.71,13.384c-2.497,6.866-7.883,15.688-7.883,15.688s-3.745-1.248-8.739-1.873
		c-4.993-0.624-8.114-0.624-14.356,3.745c-6.242,4.369-6.242,13.108-9.363,24.967c-2.865,10.888-3.111,16.525-6.994,25.585
		c-1.742,0.775-4.521,2.013-6.053,2.703c-2.341,1.053-4.33,3.043-5.267,6.086c-0.936,3.043-1.17,8.778-1.17,8.778
		c1.639,1.404,2.809,2.107,2.809,2.107s-0.117-1.17-0.117-2.575c0-1.405,0.468-6.086,1.99-8.895c1.137-2.099,3.973-3.61,6.263-4.777
		c-2.084,4.594-4.352,10.767-6.413,16.865c-2.269,1.065-4.452,1.726-6.341,1.89c-4.752,0.413-8.678,2.066-8.678,2.066l0.62,3.306
		c0,0,3.306-0.413,10.124-1.653c0.888-0.161,1.768-0.378,2.632-0.635c-2.08,6.434-3.79,12.244-4.626,15.312
		c-1.873,6.866,3.121,13.108,6.242,16.229c3.121,3.121,14.356,4.369,14.356,4.369s-0.624,3.745,0.624,8.114
		c1.248,4.369,11.859,4.993,17.477,7.49c5.618,2.497,18.101,6.866,18.101,6.866l-1.248,11.859
		c-1.537,8.235-1.171,19.948-0.073,26.17c1.098,6.223,4.758,33.309,5.491,37.701c0.732,4.392,1.098,11.713,0.366,13.909
		c-0.732,2.196-1.098,3.66-1.098,5.124c0,1.464-6.588,17.569-9.151,27.086c-2.562,9.517-2.928,24.158-2.928,31.112
		c0,6.954,0.366,23.06,0,25.988c-0.323,2.586,0.496,4.881,1.7,5.888c-0.181,0.625-0.261,1.419-0.209,2.503
		c0.188,3.938-0.188,11.063-1.5,14.251c-1.313,3.188-2.793,9.143-0.563,10.125c6.379,2.809,16.915,0.546,20.063-0.375
		c4.051-1.185,4.875-2.813,6.375-4.313c1.5-1.5,3.563-1.875,5.063-0.375c1.5,1.5,3.188,1.875,5.625,1.313
		c2.438-0.563,9.188-3.188,11.813-5.25c2.625-2.063,2.489-7.839,1.552-10.651c-0.938-2.813-2.114-3.037-4.364-3.412
		c-2.25-0.375-4.313,0.375-6.563-1.125c-2.25-1.5-3.563-2.063-5.063-1.875c-1.5,0.188-3-2.25-3-2.25s2.438-0.75,2.25-3.375
		c-0.188-2.625-2.063-5.063-3.563-6.75c-0.601-0.676-1.295-0.895-2.161-0.801c0.048-3.539,1.151-14.001,3.656-29.031
		c2.562-15.373,2.928-24.524,5.856-31.479c2.928-6.955,6.589-14.641,9.517-21.962c1.69-4.225,3.38-12.11,4.929-20.977
		c3.689,14.507,9.405,30.24,10.208,33.856c0.986,4.438-0.986,9.369-1.972,23.67c-0.986,14.301,0.986,19.725,0.986,28.108
		c0,8.383-2.959,18.739-1.972,21.698c0,0,0.835,0.12,2.206,0.416l-5.117,25.083l2.219,0.453l4.121-20.197
		c0.018,0.255,0.044,0.518,0.088,0.802c0.568,3.6,0.947,13.642,0.379,15.347c-0.568,1.705-2.463,5.874,0,8.147
		c2.463,2.274,9.473,2.842,15.915,1.137s7.768-2.084,10.421-4.547c2.653-2.463,6.821-2.084,10.231-1.895
		c3.41,0.189,5.467,1.411,9.067,0.085c3.6-1.326,7.958-3.41,9.663-7.768c1.705-4.358,1.137-10.61-2.084-12.315
		c-3.221-1.705-6.983-1.221-9.257-0.653c-2.274,0.569-3.195-0.604-5.305-0.568c-2.305,0.039-3.979,0-5.873-1.137
		c-1.895-1.137-0.947-1.516-1.137-4.547c-0.165-2.631-0.905-6.258-5.059-8.286c0.032-0.135,0.063-0.273,0.095-0.404
		c0.986-3.945-0.986-10.356-0.493-15.287c0.493-4.931,0.493-28.108,1.973-36.491c1.479-8.383,1.479-10.356,2.466-17.753
		c0.986-7.397,0-35.505-0.493-56.71c-0.024-1.042-0.061-2.069-0.103-3.088l8.188-40.132l0.588,0.12l1.041-5.104
		c1.651-0.506,3.176-1.202,4.027-1.492c-0.013,2.525,0.434,4.705,1.387,6.075c2.023,2.908,0.587,5.223,1.975,5.166
		c1.388-0.057,2.755-0.005,2.755-0.005s0.775-2.45-0.259-3.455c-1.034-1.005-1.671-2.609-2.082-7.342
		c-0.057-0.652-0.063-1.358-0.036-2.099c0.575-0.367,1.077-0.767,1.408-1.19c0.962-1.227,0.397-2.529,0.397-2.529
		s1.167-1.067,1.834-2.591c0.481-1.101,0.239-2.278,0.067-2.853c4.521,2.087,15.135,6.416,18.517,8.107
		c3.952,1.976,11.39,4.068,14.296,5.114c0.151,0.054,0.31,0.089,0.469,0.118v3.973h0.85v60.15h-0.531v2.39h0.961v72.703h-0.376v2.39
		h0.695v73.022h2.402v-73.022h0.849v-2.39h-0.53V299.7h1.115v-2.39h-0.684v-60.15h0.636v-5.626c1.326-0.786,2.468-1.617,3.092-1.953
		c0.214-0.116,0.442-0.248,0.674-0.389c0.499,2.699,1.466,4.938,2.833,6.166c2.719,2.444,1.717,5,3.148,4.667
		c1.431-0.333,2.862-0.556,2.862-0.556S272.454,236.915,271.166,236.137z M206.369,196.583c0.926,1.967,1.833,3.908,2.631,5.64
		l-0.992,4.862l0.958,0.196c-0.979,0.086-2.08,0.214-2.994,0.403c-0.867,0.179-1.752,0.68-2.554,1.177
		C204.356,204.885,205.36,200.481,206.369,196.583z M169.77,419.947l0.316-1.548c0.192,0.05,0.387,0.102,0.587,0.156
		C170.333,419.025,170.023,419.475,169.77,419.947z M198.537,264.073c-1.078-9.047-2.691-16.536-4.063-21.631
		c1.871-1.745,2.982-3.016,2.982-3.016c0.674-2.794,0.305-7.615,0-9.9c-0.045-0.338-0.027-0.711,0.02-1.104
		c2.663,1.543,5.282,2.953,6.692,3.812c0.014,0.008,0.03,0.013,0.044,0.021l-0.816,3.997l0.785,0.16L198.537,264.073z"/>
	<path style="fill:#1F0C03;" d="M716.835,441.91l-21.184-85.995l0.79-0.195l-0.693-2.814l-0.427,0.105l-21.091-85.619l1.091-0.269
		l-0.693-2.814l-0.603,0.148l-17.45-70.836l0.965-0.238l-3.289-13.35c0.364-0.271,0.587-0.443,0.587-0.443s3.298-0.715,4.021-3.222
		c0.723-2.507-0.575-4.064-0.575-4.064s0,0-0.043-2.647c-0.043-2.647-0.668-3.553-0.668-3.553s0,0-0.392-2.183
		c-0.391-2.183-1.481-3.438-1.481-3.438s0,0-0.392-2.183c-0.353-1.968-3.159-2.24-5.274-2.175l-1.129-4.583l-9.276,2.285
		l0.762,3.092c-3.558,2.302-4.412,4.311-3.625,10.049c0.162,1.185,0.396,2.46,0.665,3.787c-0.426,2.079-1.279,4.188-2.511,5.186
		c-1.86,1.507-6.583,8.558-11.162,11.942c-4.579,3.383-12.686,7.715-12.686,7.715s-2.889-10.83-5.225-16.022
		c-1.183-2.63-2.783-6.599-4.659-11.112c0.401-0.96,1.111-2.881,0.694-3.576c0,0,0.188-1.316,1.316-2.257
		c1.128-0.94,1.128-4.89,0-5.454c-0.727-0.364-2.077-0.102-2.946,0.129l0.735-6.322l-8.544-0.994
		c-0.764-1.093-1.566-2.105-2.395-3.023c-1.443-2.389-2.984-4.944-3.906-6.926c-0.634-1.362-2.054-4.813-3.903-8.688
		c0.55-1.333,2.338-1.293,3.371-1.228c1.071,0.068,5.192,0.422,5.997-0.824c0.806-1.246,1.173-5.125,1.483-6.529
		c0.31-1.404,2.331-2.426,2.175-3.405c-0.107-0.676-0.591-1.028-0.591-1.028s0.812-0.179,0.969-0.923
		c0.157-0.745-0.089-1.22-0.504-1.789c-0.415-0.569,0.666-1.821,0.946-2.328s2.881-1.189,4.077-1.326
		c1.196-0.136,2.242-0.678,1.169-3.8c-1.073-3.122-1.444-3.956-1.483-5.081c-0.039-1.125,1.361-2.031,1.83-2.755
		c0.469-0.725,0.925-2.408,0.925-2.408s3.724,1.033,8.023,1.055c4.299,0.022,4.938-0.717,1.594-2.05
		c-3.344-1.333-9.721-4.976-9.721-4.976s-2.789-8.154-4.301-11.865c-1.511-3.71-4.55-6.426-10.172-8.214
		c-5.622-1.788-13.76-3.704-23.474,3.569c-9.714,7.272-11.756,14.248-9.798,19.872c0.596,1.712-3.658,3.343-6.02,5.187
		c-2.362,1.843-3.286,6.466-1.792,7.351l2.542-0.694c0,0-0.851-2.046,0.276-3.873c1.127-1.826,5.062-3.033,6.115-4.2
		c1.054-1.167,1.054-1.167,1.054-1.167s1.268,2.452-0.191,4.036c-1.46,1.584-1.606,2.903-0.862,3.14
		c0.744,0.237,2.323,1.285,3.253,3.083c0.93,1.798,1.353,2.615,1.049,4.43c-0.113,0.672-0.242,2.636-0.38,5.165
		c-0.168,0.209-0.323,0.393-0.453,0.523c-1.264,1.264-0.506,1.264-3.792,1.011c-3.286-0.253-5.814,1.769-6.825,4.55
		c-1.011,2.78-1.264,4.044-3.033,5.814c-1.769,1.769-16.43,0-26.794,2.022c-10.364,2.022-8.341,3.286-10.111,5.055
		c-1.769,1.769-1.769,0.758-4.55,4.55c-2.781,3.792-3.792,5.561-6.572,7.078c-2.78,1.517-2.239,2.333-2.78,4.297
		c-0.493,1.788-0.912,3.255-1.961,5.456c-1.048,2.201-2.306,4.717-1.991,5.136c0.314,0.419,0.734,0.524,1.572,0.524
		c0.839,0,1.048-0.105,1.887-1.992c0.839-1.887,1.782-4.717,1.782-4.717s-0.419,3.878-0.839,6.289
		c-0.419,2.411-3.04,7.861-6.079,11.425c-3.04,3.564-6.394,7.861-6.813,10.272c-0.419,2.411,0.105,3.668,1.258,3.668
		c0.312,0,0.59,0.002,0.839,0.023c-0.09,0.859-0.158,1.825-0.315,3.122c-0.696,5.743,0.114,13.438,1.532,17.892
		c1.418,4.455,3.847,7.29,4.455,8.909c0.607,1.62,5.062,2.43,6.682,2.632s3.24,0.607,3.24,0.607s2.227,4.05,5.67,7.492
		c3.442,3.442,6.885,6.277,11.137,6.48c1.04,0.05,2.214,0.014,3.394-0.068c-2.081,2.462-4.884,6.284-5.823,7.358
		c-1.417,1.62,3.037,5.872,4.252,8.302c1.215,2.43,0.607,6.682,1.822,11.137c0.319,1.168,1.745,2.981,3.851,5.109
		c-0.665,7.959-0.27,12.804-0.917,18.95c-0.802,7.615-1.603,20.44-2.405,25.25c-0.802,4.809,0.003,9.653-0.401,12.024
		c-0.412,2.422,2.246,1.939,2.246,1.939s-1.208,8.94-3.625,13.532s-6.041,9.665-9.424,22.955c-3.383,13.29-3.383,27.063-2.9,35.279
		c0.483,8.216-0.725,21.022-0.725,23.439c0,2.416-0.725,4.108-0.725,4.108s-0.725-1.208-2.416-0.242
		c-1.691,0.967-0.725,1.933-0.966,4.591c-0.242,2.658-1.836,8.555-1.836,11.937c0,3.383,0,9.424,0.483,10.632
		c0.483,1.208,5.558,2.416,10.632,1.933c5.074-0.483,9.182-1.691,10.874-3.625c1.692-1.933,7.491-2.9,10.632-2.658
		s4.904-0.59,9.182-1.208c4.942-0.714,8.583-2.615,10.688-4.792c2.555-2.642,4.531-9.362,0.138-11.199
		c-2.103-0.88-9.424-0.725-13.048-1.933c-3.624-1.208-8.457-3.625-9.182-5.074c-0.725-1.45,0.725-2.175-0.725-3.625
		c-1.45-1.45-3.625-1.691-3.625-1.691s1.208-13.532,2.658-24.164c1.45-10.632,7.732-33.104,9.182-38.903
		c1.45-5.799,4.591-6.041,7.007-10.874c2.416-4.833,2.416-6.766,3.625-9.907c1.208-3.141,2.658-4.108,2.658-4.108
		s7.974,0.242,12.323,0.483c4.35,0.242,6.283,0.725,7.007-0.483c0.607-1.011,1.855-12.878,2.246-16.731
		c0.681,0.689,1.355,1.37,2.014,2.034l-4.646,39.947l-0.615-0.072l-0.335,2.879l0.986,0.115l-10.231,87.973l2.791,0.325
		l10.231-87.973l0.808,0.094l0.335-2.879l-0.437-0.051l4.319-37.137c1.856,1.859,3.254,3.251,3.686,3.683
		c1.691,1.691,3.383,1.45,5.799,0c2.416-1.45,5.934-4.228,9.25-5.983c4.835-2.56,4.555-3.457,4.555-3.457l12.844,5.632
		c0,0-1.814,17.631-0.263,31.811c1.55,14.18,3.188,21.7,4.541,28.614c1.353,6.914,3.549,15.475,2.821,18.132
		c-0.728,2.657-0.731,5.074-1.698,5.797c-0.967,0.724-2.417,0.239-3.386,2.896c-0.97,2.657-0.734,7.973-1.221,11.114
		c-0.487,3.141-1.94,5.555-1.701,7.972c0.239,2.417,2.411,5.077,6.758,6.532c4.348,1.455,9.181,1.219,11.357,0.255
		c2.176-0.964,7.734-1.682,10.634-2.162c2.9-0.48,4.348,1.455,6.764,1.216c2.417-0.239,13.533-0.709,18.368-3.362
		c4.836-2.652,7.736-3.132,8.464-6.031c0.728-2.899,0.251-8.457-2.164-9.426c-2.415-0.969-10.631-0.495-13.047-1.465
		c-2.415-0.969-8.936-4.36-11.59-7.263c-2.655-2.903-5.55-6.289-7.484-5.808c0,0-3.281-10.484-3.196-16.826
		c0.085-6.342,0.694-33.309,1.942-43.29c1.248-9.981,0.549-15.579,1.038-19.771c0.489-4.191-0.268-7.498-1.93-11.285
		c-1.662-3.788-6.315-8.24-10.181-11.864c-3.866-3.624-13.773-15.706-17.156-20.539c-3.383-4.833-5.316-6.524-8.457-9.907
		c-1.874-2.018-7.615-8.849-11.944-14.034c0.978-11.577,1.747-23.678,2.128-32.472c1.257,1.45,2.549,1.839,3.944,2.537
		c3.115,1.557,7.775,2.217,10.911,0.945c3.136-1.273,7.762-4.911,11.992-7.831c4.23-2.919,3.49-4.639,3.49-4.639
		s8.302-9.299,13.558-14.933c0.814-0.873,1.532-1.678,2.189-2.43c-0.383,3.319-1.031,4.754-1.996,5.75
		c-1.237,1.276-0.17,4.205-0.17,4.205s1.689-0.139,3.411-0.146c1.721-0.008-0.157-2.737,2.221-6.376
		c1.298-1.986,1.712-5.248,1.352-8.923c0.803-0.76,1.538-1.247,2.365-1.447c0.438-0.106,0.964-0.323,1.528-0.602l2.771,11.247
		l0.722-0.178l17.45,70.836l-0.777,0.191l0.693,2.814l1.266-0.312l21.091,85.619l-0.601,0.148l0.693,2.814l0.964-0.237
		l21.184,85.995L716.835,441.91z M491.674,175.537c-2.935,3.878-4.926,6.394-6.079,9.119c-0.393,0.929-0.623,1.673-0.78,2.388
		c-0.248-0.14-0.453-0.362-0.583-0.815c-0.419-1.467-0.838-2.62,1.467-5.765c2.306-3.145,3.564-4.298,5.66-7.232
		c2.096-2.935,3.249-5.136,3.249-5.136S494.609,171.659,491.674,175.537z"/>
	<path style="fill:#1F0C03;" d="M466.877,238.972c-1.149-0.967-1.911-2.548-2.613-7.262c-0.147-0.987-0.182-2.1-0.149-3.283
		c0.069-0.081,0.148-0.16,0.206-0.242c0.905-1.267,0.284-2.539,0.284-2.539s1.116-1.116,1.713-2.666
		c0.597-1.55-0.199-3.203-0.199-3.203s0.7-0.712,0.47-2.98c-0.149-1.478-0.676-2.113-1.028-2.38c0.002-0.042,0.006-0.088,0.008-0.13
		c0.226-4.763-0.654-6.358-3.853-8.016l0.409-2.589l-8.055-1.272l-0.888,5.621l0.626,0.099c-0.972,0.129-2.064,0.306-2.968,0.535
		c-2.183,0.553-4.397,3.198-5.182,2.475c0.037-2.934-2.394-5.318-3.18-6.89c-0.786-1.572-2.358-6.68-3.93-10.61
		c-1.572-3.929-3.93-5.108-4.322-7.466c-0.393-2.358-1.965-6.68-1.572-10.217c0.393-3.537,0.393-11.789,0.393-18.862
		c0-7.043-2.336-13.304-3.52-18.013c0.498,0.133,1.04,0.241,1.57,0.48c1.474,0.665,1.208,2.892,1.208,2.892s1.062-0.722,1.152-2.374
		c0.09-1.652,1.578-0.353,4.676-0.867c3.098-0.514,3.01-1.591,5.518-2.917c2.508-1.326,2.476,2.863,2.476,2.863
		s0.459-2.168-0.1-4.439c-0.559-2.272-2.875-0.887-2.859-2.981c0.016-2.094,1.682-1.371,3.054-2.417
		c1.372-1.046-0.529-3.732,0.799-3.952c1.327-0.22,3.363-0.013,3.363-0.013s-1.858-0.783-2.358-3.246
		c-0.5-2.463-4.321-0.283-6.828-1.686c-0.751-0.42-1.17-1.177-1.442-2.124c0.51,0.125,1.038,0.115,1.611,0.048
		c2.166-0.255,4.077,1.274,4.077,1.274s-1.019-2.166-3.312-2.93c-2.293-0.764-2.293-1.784-1.911-6.115
		c0.323-3.656-1.807-6.223-4.395-8.62c0.333-2.487,1.318-5.434,2.306-6.224c1.085-0.868,2.604-1.953,2.821-4.558
		c0.217-2.604-1.953-8.464-3.038-10.417c-1.085-1.953-3.501-1.415-3.501-1.415s-4.312-4.879-6.482-6.398
		c-2.17-1.519-9.56-6.946-19.098-7.162c-6.307-0.143-12.804,3.907-15.626,8.681c-2.821,4.775-3.255,9.983-3.906,15.409
		c0,0-2.121,4.888-1.323,8.986c-3.312-1.65-6.511-3.863-8.86-4.058c-3.44-0.287-17.773-0.287-22.646,0.287
		c-2.834,0.333-5.664,2.023-7.99,3.605c-8.568-0.731-17.115-1.452-19.527-1.623c-5.277-0.375-11.873,0.375-15.172,10.879
		c-3.298,10.504,3.958,20.258,6.267,21.384c0.608,0.296,5.771,0.957,13.044,1.77c-0.197,0.248-0.423,0.479-0.701,0.678
		c-2.007,1.433,2.867,1.433,3.153,3.727c0.287,2.293-1.72,8.313-2.867,10.893c-1.147,2.58-2.293,0-4.587,3.44
		c-2.293,3.44-2.58,13.76-5.16,18.92c-2.58,5.16-3.727,9.46-7.167,13.473c-3.44,4.013-4.873,8.887-5.16,12.327
		c-0.287,3.44,2.867,3.153,2.007,5.16c-0.86,2.007-2.867,3.44-1.72,8.887c1.147,5.447,8.027,11.753,6.593,13.76
		c-1.433,2.007-1.821,5.448-1.409,7.51c0.413,2.063,3.3,2.681,5.569,4.125c2.269,1.444,3.919,2.475,3.3,6.6
		c-0.619,4.125-5.362,10.312-6.394,13.2c-1.031,2.887,0.825,6.187,0.825,6.187s1.031-2.063,2.681-1.856c0,0-2.475-2.475,0.825-7.631
		c2.445-3.821,3.868-6.734,4.61-9.415c-0.218,2.279-0.424,4.517-0.682,6.58c-1.019,8.154,2.548,28.537,5.096,36.181
		c1.401,4.203,4.497,13.798,7.339,22.433l-0.159-0.069l-0.948,2.189l0.88,0.381l-28.842,66.597l-0.344-0.149l-0.948,2.189
		l0.637,0.276l-7.764,17.926c-0.059,0.126-0.115,0.257-0.169,0.391l-21.036,48.572l2.201,0.953l18.633-43.023
		c1.442,4.399,5.833,8.18,5.833,10.418c0,2.676,0,8.814,1.102,13.378c1.102,4.564,6.768,10.388,14.795,13.85
		c8.027,3.463,13.221,1.102,13.85-1.417c0.63-2.518-0.157-10.073-1.417-15.424c-1.259-5.351-2.676-13.221-2.046-14.795
		c0.629-1.574,2.99-5.509,3.305-7.87c0.315-2.361,1.574-3.463,2.99-5.823c1.416-2.361,1.889-3.148,0.787-5.194
		c-1.102-2.046-3.777-3.305-3.777-3.305s3.463-5.509,7.397-8.342c3.935-2.833,3.935-2.833,3.935-2.833s1.102,0.787,2.361-0.157
		c1.259-0.944,1.102-2.046,3.305-4.564c1.91-2.183,12.092-10.865,16.31-14.473c-0.588,3.168-1.197,6.253-1.715,9.065
		c-1.693,9.192-2.177,20.077-3.145,22.254c-0.967,2.177-1.935,4.838-1.693,5.805c0.242,0.968,1.693,1.693,2.661,1.693
		c0.967,0,0,2.419-0.242,7.499c-0.242,5.08-2.177,14.03-2.177,14.03s0,0-1.451,1.451c-1.451,1.451-1.693,4.596-1.451,8.224
		c0.242,3.628,0.726,7.741,0.242,13.546c-0.484,5.805-0.242,12.578,1.693,13.788c1.935,1.209,13.788,1.209,18.142-0.484
		c4.354-1.693,10.159-4.838,13.788-6.289c3.628-1.451,7.982-2.419,11.127-4.112c3.145-1.693,4.596-4.354,4.354-8.95
		c-0.242-4.596-3.386-7.015-5.563-7.499c-2.177-0.484-4.596,1.451-6.289,0.968s-5.805-3.87-7.015-5.322
		c-1.21-1.451-2.177-2.661-1.451-6.047c0.726-3.386-0.484-7.741-1.451-8.708c-0.968-0.968-4.112,1.935-3.87,0.726
		c0.242-1.209,0.967-6.531,1.935-11.127c0.967-4.596,0.726-3.87,2.404-4.905c1.941-1.197,1.368-3.649,1.368-5.473
		s4.561-23.261,6.385-29.646c1.824-6.385,5.017-22.349,5.929-25.542c0.912-3.193,1.824-11.403,2.737-18.244
		c0.912-6.841,2.737-23.717,3.193-38.769c0.456-15.051,1.368-19.156,0.12-29.788c1.237,3.506,6.394,6.187,10.312,10.518
		c3.919,4.331,5.569,7.837,5.569,7.837l3.506-5.362c0,0-3.712-5.362-6.806-7.631c-3.094-2.269-7.837-6.394-8.456-10.312
		c-0.619-3.919-2.062-6.806-2.062-6.806s-0.413-2.887,0.412-5.981c0.825-3.094,1.856-4.125-0.206-11.137
		c-0.632-2.151-1.459-7.374-2.164-14.025c0.963,1.41,1.971,2.7,3.043,3.827c7.466,7.859,12.574,20.827,14.539,20.434
		c1.965-0.393,5.894,4.323,9.038,5.501c3.12,1.17,5.466,3.106,8.189-1.088c2.618,1.357,5.149,2.581,6.539,3.345
		c0.141,0.077,0.291,0.136,0.444,0.19l-0.618,3.917l0.838,0.132l-9.365,59.309l-0.523-0.083l-0.372,2.356l0.948,0.15l-11.32,71.686
		l-0.371-0.059l-0.372,2.356l0.686,0.108l-11.369,72.001l2.369,0.374l11.369-72.001l0.837,0.132l0.372-2.356l-0.522-0.083
		l11.32-71.686l1.099,0.174l0.372-2.356l-0.675-0.107l9.365-59.309l0.627,0.099l0.876-5.547c1.43-0.569,2.685-1.21,3.353-1.444
		c0.229-0.081,0.475-0.176,0.726-0.279c0.071,2.739,0.677,5.097,1.833,6.521c2.3,2.833,0.915,5.197,2.377,5.091
		c1.463-0.106,2.908-0.102,2.908-0.102S468.026,239.939,466.877,238.972z M323.915,229.671c-2.063-1.444,4.125-1.031,4.125-1.031
		s0.395,0.286,1.081,0.718c-0.496,2.164-0.849,4.544-1.134,6.986C327.533,233.507,325.588,230.842,323.915,229.671z
		 M348.455,335.654c0.157,1.102,0.787,1.416-0.157,2.676c-0.944,1.259-7.987,7.588-13.181,12.624
		c-2.018,1.957-6.232,6.228-8.514,9.578c-0.654,0.96,1.4,2.104,0.782,3.059c-2.774,4.289-5.056,8.263-5.686,9.522
		c-1.259,2.518-2.99,6.453-3.463,6.925c-0.472,0.472-3.777,0.315-5.509,3.305c-1.656,2.861-4.456,6.418-6.487,7.963l5.482-12.659
		l0.778,0.337l0.948-2.189l-0.485-0.21l28.088-64.854c1.583,4.748,2.924,8.655,3.596,10.336c2.038,5.096,4.438,9.179,4.438,10.281
		C349.085,333.451,348.298,334.552,348.455,335.654z"/>
</g>
</svg>
